<svg width="56" height="56" viewBox="0 0 56 56" fill="none" xmlns="http://www.w3.org/2000/svg">
<path d="M56 28.5C56 43.6878 43.6879 56 28.5 56C23.1457 56 18.1488 54.4698 13.9228 51.8228C13.7604 51.7211 4.05194 41.1047 3.9874 40.978C2.07721 37.233 1 32.9924 1 28.5C1 13.3122 13.3121 1 28.5 1C43.6879 1 56 13.3122 56 28.5Z" fill="#FDD65B"/>
<path d="M49.0612 38.6166L41.1497 44.2527C39.6497 45.3213 37.8632 45.8944 36.0323 45.8944H22.6451C20.87 45.8944 19.1677 46.612 17.9126 47.8893L13.8734 52C9.68406 49.3296 6.25703 45.5352 4 41.0321C6.38051 38.4057 10.9748 33.4506 13.1897 31.8251C15.8297 29.8877 19.8825 30.0012 19.8825 30.0012H32.686C33.9182 30.0012 34.9169 31.0178 34.9169 32.2717C34.9169 33.5257 33.9182 34.5422 32.686 34.5422H23.231C22.2373 34.5422 21.7395 35.765 22.4423 36.4802C22.6514 36.693 22.9352 36.8127 23.231 36.8127H36.3567C37.2687 36.8127 38.1773 36.6988 39.0621 36.4737L45.5419 34.825C46.2883 34.6351 47.055 34.5402 47.8243 34.5422C49.0298 34.5455 50 35.5549 50 36.7818C49.9999 37.5126 49.6495 38.1975 49.0612 38.6166Z" fill="#FBEDE7"/>
<path d="M49.0517 38.9062L41.0602 44.4204C39.5451 45.4658 37.7405 46.0265 35.8911 46.0265H22.3686C20.5756 46.0265 18.8561 46.7286 17.5883 47.9783L13.5082 52C12.6384 51.463 11.8011 50.8795 11 50.2531L16.6549 44.6789C17.9227 43.4292 19.6422 42.7271 21.4352 42.7271H34.9578C36.8073 42.7271 38.6118 42.1664 40.127 41.121C40.127 41.121 50 36.2068 50 37.1111C49.9999 37.8262 49.646 38.4963 49.0517 38.9062Z" fill="#EAC0B5"/>
<path d="M34 32.5001C34 33.3284 33.1046 34 32 34H31C30.4478 34 30 33.6643 30 33.25V31.75C30 31.3359 30.4478 31 31 31H32C33.1046 31 34 31.6716 34 32.5001Z" fill="white"/>
<path d="M39.0114 19.59C39.0114 19.59 31.6904 25.0433 28.5517 26.8522C28.2097 27.0493 27.7903 27.0493 27.4483 26.8522C24.3097 25.0433 16.9887 19.59 16.9887 19.59C10.5654 15.3667 9.6987 8.52153 12.5454 4.25702C15.8896 -0.761954 22.9871 -1.46514 27.25 2.80015L27.6095 3.15981C27.8252 3.37549 28.1747 3.37549 28.3904 3.15981L28.7441 2.8059C33.0077 -1.46006 40.1055 -0.759965 43.4545 4.25691C46.3013 8.52153 45.4346 15.3667 39.0114 19.59Z" fill="#FD4343"/>
<path d="M32 24.9808C30.875 25.7344 29.8342 26.4019 29.0484 26.8497C28.6968 27.0501 28.2655 27.0501 27.9138 26.8497C24.6863 25.0104 17.1582 19.4658 17.1582 19.4658C10.5531 15.1717 9.66191 8.21166 12.5892 3.87563C13.4025 2.66869 14.4318 1.70722 15.5873 1C13.0697 5.91574 14.4211 13.0458 21.3706 17.5639C21.3707 17.5638 27.932 22.3964 32 24.9808Z" fill="#D73131"/>
<path d="M34.0373 3.86915C34.3706 2.86121 37.0899 2.61367 39.058 3.75222C41.7295 5.29769 42.5044 9.1006 41.6947 9.83212C40.3955 11.0062 33.4313 5.70156 34.0373 3.86915Z" fill="#FD7A7A"/>
</svg>
