<svg width="19" height="16" viewBox="0 0 19 16" fill="none" xmlns="http://www.w3.org/2000/svg">
<path d="M18.8198 6.33859C18.6323 5.681 18.2958 5.06043 17.8509 4.54437C17.4624 4.09363 17.0062 3.73653 16.4958 3.48176C15.9515 3.21176 15.3755 3.07458 14.7838 3.07458C14.6844 3.07458 14.585 3.07894 14.4857 3.08547C14.0791 3.11813 13.7516 3.39249 13.6319 3.79968C13.5687 4.01524 13.5664 4.25912 13.6252 4.4834C13.6929 4.74469 13.8442 4.96897 14.0452 5.11269C14.5421 5.46543 14.6844 6.07948 14.716 6.53457C14.7567 7.11377 14.6415 7.78225 14.4089 8.32009C13.9165 9.45672 12.7398 10.4692 11.4163 10.896C11.1566 10.9809 10.4587 11.1747 9.57784 11.1747C7.74842 11.1747 6.47686 10.3713 5.79704 8.78824C5.51924 8.14371 5.61861 7.08546 6.0387 6.21666C6.34361 5.58519 6.77047 5.14535 7.21089 5.01252C7.32156 4.97986 7.44352 4.96026 7.56548 4.96026C7.73035 4.96026 8.27918 4.99946 8.44405 5.51987C8.496 5.68536 8.48245 5.88568 8.40792 6.01851C8.38081 6.06859 8.34919 6.0969 8.33338 6.10125C7.81618 6.24714 7.39834 6.48013 7.09344 6.79151C6.80886 7.08111 6.62367 7.44039 6.55591 7.82798C6.48815 8.23081 6.54462 8.65542 6.72304 9.05607C6.89017 9.43277 7.15442 9.75721 7.46836 9.96625C7.98783 10.3146 8.66539 10.5063 9.38135 10.5063C9.89404 10.5063 10.3864 10.4061 10.802 10.2188C11.5767 9.87044 12.2474 9.29994 12.7398 8.57049C13.2389 7.83016 13.528 6.96353 13.5777 6.06424C13.641 4.908 13.3451 3.71911 12.7443 2.71312C12.4507 2.22101 12.0803 1.77899 11.6444 1.40229C11.2198 1.0343 10.7433 0.733805 10.226 0.507349C9.45136 0.169843 8.62248 0 7.75745 0C7.50224 0 7.24251 0.0152437 6.98955 0.0457282C5.78123 0.191618 4.66551 0.574853 3.66949 1.18672C2.8135 1.71149 1.27769 2.8307 0.615936 4.41807C0.277155 5.23027 0.0761455 6.06641 0.0174233 6.90256C-0.0367818 7.68862 0.0354897 8.47686 0.234242 9.24769C0.597867 10.6674 1.37707 12.0044 2.48601 13.1127C3.42782 14.0533 4.49612 14.7784 5.65927 15.2684C6.81564 15.7539 8.04881 16 9.32489 16C10.3119 16 11.3214 15.8519 12.3265 15.5602C12.7782 15.4295 13.2728 15.2727 13.8352 15.0288C14.5557 14.7153 15.2174 14.3255 15.7979 13.8683C17.4308 12.5836 18.481 10.7632 18.9237 8.45727C19.0524 7.76048 19.0186 7.02885 18.8198 6.33859Z" fill="#71AE60"/>
</svg>
